<?xml version="1.0" encoding="UTF-8"?>
<svg width="80px" height="23px" viewBox="0 0 80 23" version="1.1" xmlns="http://www.w3.org/2000/svg" xmlns:xlink="http://www.w3.org/1999/xlink">
    <!-- Generator: Sketch 48.2 (47327) - http://www.bohemiancoding.com/sketch -->
    <title>Horizontal Logo</title>
    <desc>Created with Sketch.</desc>
    <defs>
        <polygon id="path-1" points="0.15542766 0.184730769 10.9522787 0.184730769 10.9522787 18 0.15542766 18"></polygon>
        <polygon id="path-3" points="9.12464053e-06 0.130055612 23.7902589 0.130055612 23.7902589 23 9.12464053e-06 23"></polygon>
    </defs>
    <g id="Home-Smaller" stroke="none" stroke-width="1" fill="none" fill-rule="evenodd" transform="translate(-248.000000, -124.000000)">
        <g id="Horizontal-Logo" transform="translate(248.000000, 124.000000)">
            <path d="M73,5.47876695 C72.9949115,5.24001652 72.8336283,5.0393697 72.6170354,5.00271307 L72.6079646,5.00271307 L72.535177,5.00271307 C72.4825221,4.99909564 72.4294248,4.99909564 72.3767699,5.00271307 C72.349115,5.00271307 72.3214602,5.00464237 72.2940265,5.00801864 C71.6685841,5.02562347 71.0482301,5.1353522 70.45,5.33406972 C69.7484513,5.59862448 69.1170354,6.04670356 68.6110619,6.63875637 L68.6110619,5.56148553 C68.6110619,5.56148553 68.6059735,5.55376834 68.6039823,5.55376834 C68.6006637,5.28583731 68.4011062,5.06999728 68.1553097,5.06903263 L66.4517699,5.06903263 C66.2044248,5.06999728 66.0033186,5.28728428 66,5.55714461 L66,18.5075463 C66.0006637,18.7793359 66.2026549,18.9992757 66.4517699,18.9999992 L68.1471239,18.9999992 C68.3973451,19.0004815 68.6004425,18.7800594 68.600885,18.5075463 L68.600885,11.7675495 C68.600885,10.326124 68.9590708,9.50762004 69.6690265,8.84225396 C70.3183628,8.23573142 71.2747788,7.58555855 72.520354,7.47800028 C72.5311947,7.47872377 72.5422566,7.47872377 72.5533186,7.47800028 C72.7966814,7.4702831 72.9904867,7.25323726 72.9909292,6.98771785 L72.9909292,5.47876695 L73,5.47876695 Z" id="Fill-1" fill="#FFFFFF"></path>
            <g id="Group-5" transform="translate(41.000000, 5.000000)">
                <mask id="mask-2" fill="white">
                    <use xlink:href="#path-1"></use>
                </mask>
                <g id="Clip-4"></g>
                <path d="M8.09532128,8.15411538 C8.09532128,9.05711538 7.78521489,9.7425 7.1753,10.1908846 C6.56561915,10.6392692 5.6149383,10.8765 4.36912979,10.8765 L3.40487447,10.8765 C3.14415106,10.8718846 2.93538511,10.6623462 2.93538511,10.4052692 L2.93538511,3.19626923 C2.93538511,2.93665385 3.14883191,2.72619231 3.41212979,2.72619231 L3.4133,2.72619231 L4.36912979,2.72619231 C5.6149383,2.72619231 6.55812979,2.95696154 7.1753,3.41065385 C7.79247021,3.86411538 8.09532128,4.54442308 8.09532128,5.44742308 L8.09532128,8.15411538 Z M9.08812979,1.47888462 C7.92751277,0.619730769 6.35778936,0.184730769 4.42085319,0.184730769 L0.63217234,0.184730769 C0.368874468,0.184730769 0.15542766,0.395423077 0.15542766,0.655038462 L0.15542766,0.655961538 L0.15542766,17.5288846 C0.15542766,17.7887308 0.368640426,17.9994231 0.63217234,18.0001154 L2.46168298,18.0001154 C2.72521489,17.9989615 2.93842766,17.7885 2.93959787,17.5288846 L2.93959787,17.4975 L2.93959787,13.9067308 C2.93983191,13.6725 3.11489574,13.4742692 3.34987447,13.4417308 L4.42506596,13.4417308 C6.33040638,13.4417308 7.89170426,12.9818077 9.06706596,12.0737308 C10.3170872,11.1271154 10.9522787,9.80919231 10.9522787,8.15411538 L10.9522787,5.4495 C10.9511085,3.74342308 10.3234064,2.40773077 9.08812979,1.47888462 Z" id="Fill-3" fill="#FFFFFF" mask="url(#mask-2)"></path>
            </g>
            <path d="M74,15.3185349 C74,16.5727682 74.2446371,17.5093815 74.725839,18.1036606 C75.2240825,18.6988551 76.0559833,18.9999992 77.1919426,18.9999992 L79.4217057,18.9999992 C79.6741909,19.0004569 79.8791389,18.7922189 79.8795874,18.5347819 L79.8795874,18.5338665 L79.8795874,18.5224249 L79.8795874,16.9565211 L79.8795874,16.9453083 C79.8795874,16.6876424 79.6750878,16.4789467 79.4228268,16.4789467 L79.4217057,16.4789467 L77.2890351,16.4789467 C77.0121085,16.4789467 76.8271171,16.3945074 76.7271096,16.2231115 C76.669482,16.1025165 76.6401076,15.8725394 76.6401076,15.5423335 L76.6401076,8.48581204 C76.6410046,8.25354661 76.8089543,8.05697911 77.0343075,8.02471366 L79.5421182,8.02471366 L79.5470513,8.02471366 C79.7977427,8.02196767 79.9993273,7.81418736 80,7.55835213 L80,5.95240254 C80,5.69519431 79.7961731,5.48626984 79.5441363,5.48512567 L77.0343075,5.48512567 C76.8085059,5.45286023 76.6403319,5.25583506 76.6401076,5.02311196 L76.6401076,1.46521737 C76.6396592,1.20823798 76.4351596,1 76.183347,1 L74.4650572,1 C74.2125719,1.0006865 74.0076239,1.20869564 74.0060543,1.46636154 L74.0060543,15.3185349 L74,15.3185349 Z" id="Fill-6" fill="#FFFFFF"></path>
            <path d="M59.0004708,7.88609755 C57.2436708,7.88841676 55.8202134,9.30661575 55.8178856,11.0569261 L55.8178856,13.0222275 C55.8178856,14.7734655 57.2427396,16.193056 59.0004708,16.193056 C60.758202,16.193056 62.183056,14.7734655 62.183056,13.0222275 L62.183056,11.0569261 C62.1807282,9.30661575 60.7572708,7.88841676 59.0004708,7.88609755 M59.0004708,19 C55.6882265,18.9967531 53.004026,16.3222362 53.0005342,13.0222275 L53.0005342,11.0569261 C52.9567714,7.75575776 55.6072186,5.04413347 58.9206268,5.00053226 C62.2340351,4.95693105 64.9554806,7.59758741 64.9994762,10.8987557 C65.0001746,10.9516338 65.0001746,11.0042799 64.9994762,11.0569261 L64.9994762,13.0222275 C64.9959845,16.3220043 62.3122496,18.9960573 59.0004708,19" id="Fill-8" fill="#FFFFFF"></path>
            <path d="M28,5.45671846 C28.0011641,5.20448164 28.2134999,5.00045008 28.4754273,5.00000166 L30.3424458,5.00000166 C30.6043732,4.99932903 30.8174075,5.20336059 30.8178731,5.45559741 C30.8178731,5.45604583 30.8178731,5.45627004 30.8178731,5.45671846 L30.8178731,12.3727157 C30.8178731,14.0657292 32.242991,15.4381217 34.0010477,15.4381217 C35.7591044,15.4381217 37.1842223,14.0657292 37.1842223,12.3727157 L37.1842223,5.45671846 C37.1846879,5.2058269 37.3949283,5.00201955 37.6554588,5.00000166 L39.5224773,5.00000166 C39.7851031,4.99977745 39.9983702,5.20403322 40,5.45671846 L40,12.3727157 C39.912458,15.5639038 37.1551192,18.0824604 33.8413302,17.9979331 C30.6509381,17.9167689 28.0842824,15.4452965 28,12.3727157 L28,5.45671846 Z" id="Fill-10" fill="#FFFFFF"></path>
            <g id="Group-14">
                <mask id="mask-4" fill="white">
                    <use xlink:href="#path-3"></use>
                </mask>
                <g id="Clip-13"></g>
                <path d="M11.8945631,19.2116653 C8.21557282,19.2116653 4.30520388,18.1391143 4.30520388,16.1477367 C4.30520388,14.9505633 5.71794175,14.0852469 7.64353398,13.5851143 C7.77052427,13.8676857 7.92500971,14.1371143 8.10442718,14.3891755 C6.22170874,14.8336857 5.15126214,15.5640531 5.15126214,16.1477367 C5.15126214,16.4073082 5.36656311,16.6966857 5.76990291,16.9766755 C5.79739806,16.8975837 5.83817476,16.8236551 5.89060194,16.7586449 C6.30256311,16.224951 7.55196117,15.7860735 9.31328155,15.5673388 C10.8767767,16.6194714 12.9151456,16.6194714 14.4786408,15.5673388 C16.2334369,15.7851347 17.4807379,16.2216653 17.8975922,16.7523082 C17.9523495,16.8189612 17.9947573,16.8952367 18.0224854,16.9771449 C18.4262913,16.6971551 18.6411262,16.4054306 18.6411262,16.1477367 C18.6411262,15.5640531 17.5702136,14.8336857 15.6881942,14.3887061 C15.8678447,14.1368796 16.0220971,13.867451 16.1483883,13.5846449 C18.0749126,14.0847776 19.4878835,14.9505633 19.4878835,16.1477367 C19.4888155,18.1391143 15.5756505,19.2116653 11.8945631,19.2116653 Z M11.8945631,7.93603265 C13.9354951,7.93626735 15.5900971,9.60306327 15.5896311,11.6587469 C15.5893981,13.7146653 13.9345631,15.3809918 11.8936311,15.3807571 C9.85339806,15.3805224 8.19926214,13.7149 8.19856311,11.6596857 C8.19949515,9.60400204 9.85363107,7.93767551 11.8945631,7.93603265 Z M23.6375534,17.3794102 L12.6774757,0.528389796 C12.3316893,-0.00272244898 11.460233,-0.00272244898 11.1165437,0.528389796 L0.153436893,17.3794102 C-0.129669903,17.8135939 -0.00990291262,18.3970429 0.421398058,18.6824306 C0.506213592,18.7385224 0.599650485,18.780298 0.697980583,18.8061143 L11.6566602,22.9698184 C11.8118447,23.0101857 11.9744854,23.0101857 12.1296699,22.9698184 L23.0920777,18.8061143 C23.5914175,18.6746857 23.8901359,18.1604714 23.7596505,17.6577571 C23.7340194,17.5594204 23.6927767,17.4657776 23.6375534,17.3808184 L23.6375534,17.3794102 Z" id="Fill-12" fill="#FFFFFF" mask="url(#mask-4)"></path>
            </g>
        </g>
    </g>
</svg>